<svg width="24" height="24" viewBox="0 0 24 24" fill="none" xmlns="http://www.w3.org/2000/svg">
<path d="M21.6047 12.2301C21.6047 11.5504 21.5496 10.867 21.432 10.1982H12V14.0489H17.4013C17.1771 15.2908 16.457 16.3895 15.4024 17.0876V19.5861H18.6248C20.5171 17.8445 21.6047 15.2725 21.6047 12.2301Z" fill="#4285F4"/>
<path d="M11.9984 22C14.6954 22 16.9698 21.1145 18.6269 19.586L15.4045 17.0874C14.508 17.6974 13.3506 18.0428 12.0021 18.0428C9.39334 18.0428 7.18141 16.2828 6.38775 13.9165H3.0625V16.4922C4.76003 19.8689 8.21756 22 11.9984 22Z" fill="#34A853"/>
<path d="M6.38529 13.9165C5.96642 12.6746 5.96642 11.3298 6.38529 10.0879V7.51221H3.06371C1.64543 10.3378 1.64543 13.6667 3.06371 16.4922L6.38529 13.9165Z" fill="#FBBC04"/>
<path d="M11.9984 5.95791C13.4241 5.93586 14.8019 6.47231 15.8344 7.45703L18.6894 4.60209C16.8816 2.90456 14.4823 1.97128 11.9984 2.00067C8.21756 2.00067 4.76003 4.13178 3.0625 7.51214L6.38408 10.0878C7.17406 7.71791 9.38967 5.95791 11.9984 5.95791Z" fill="#EA4335"/>
</svg>
