<svg width="211" height="64" viewBox="0 0 211 64" fill="none" xmlns="http://www.w3.org/2000/svg">
<path d="M7.4982 22.5115C7.4982 12.6018 14.6332 6.19354 25.5338 6.19354C34.915 6.19354 42.2482 12.6679 42.5785 21.2563H32.2064C31.81 17.6888 29.0352 15.4426 25.0053 15.4426C20.3808 15.4426 17.7382 17.4245 17.7382 20.992C17.7382 23.7667 19.2577 25.4183 22.627 26.4093L29.5638 28.4573C36.7648 30.6374 40.2002 34.6674 40.2002 41.0756C40.2002 50.5889 32.9991 56.8651 21.9663 56.8651C11.3299 56.8651 4.45923 51.1174 4.12891 41.8023H14.501C14.6992 45.4359 17.6721 47.616 22.4288 47.616C27.1854 47.616 30.0262 45.568 30.0262 42.1327C30.0262 39.6883 28.9031 38.4991 25.7981 37.5742L18.6631 35.5262C11.5281 33.4782 7.4982 28.7876 7.4982 22.5115Z" fill="#FF7037"/>
<path d="M54.3184 17.6888C51.5437 17.6888 49.5617 15.6408 49.5617 12.9321C49.5617 9.49677 52.6668 6.39173 56.1682 6.39173C58.9429 6.39173 60.9248 8.43974 60.9248 11.1484C60.9248 14.5177 57.7537 17.6888 54.3184 17.6888ZM43.4177 56.0062L48.6368 22.9739H58.4804L53.2613 56.0062H43.4177Z" fill="#FF7037"/>
<path d="M76.8247 56.0062H66.6508V31.4302H60.3746V22.9739H66.6508V12.7339H76.8247V22.9739H83.1008V31.4302H76.8247V56.0062Z" fill="white"/>
<path d="M102.309 56.0062H92.1346V31.4302H85.8585V22.9739H92.1346V12.7339H102.309V22.9739H108.585V31.4302H102.309V56.0062Z" fill="white"/>
<path d="M128.162 56.8651C118.186 56.8651 111.051 49.598 111.051 39.424C111.051 29.1179 117.988 21.9169 127.963 21.9169C138.335 21.9169 144.81 28.7216 144.81 39.4901V42.0666L120.828 42.1987C121.423 46.559 123.867 48.607 128.36 48.607C132.191 48.607 134.9 47.2196 135.627 44.8413H144.942C143.753 52.1745 137.212 56.8651 128.162 56.8651ZM128.029 30.175C123.999 30.175 121.753 31.9587 120.96 35.9226H134.702C134.702 32.4212 132.125 30.175 128.029 30.175Z" fill="white"/>
<path d="M173.561 22.9739V32.5533H170.324C164.51 32.5533 161.008 35.1298 161.008 41.6702V56.0062H150.835V23.04H160.414L160.942 27.9288C162.33 24.6916 165.237 22.5115 169.663 22.5115C170.852 22.5115 172.173 22.6436 173.561 22.9739Z" fill="white"/>
<path d="M193.033 6.19354L196.616 12.6798L203.794 11.5093L201.084 18.427L206.452 23.4536L199.49 25.5936L199.005 33.0323L193.033 28.7831L187.06 33.0323L186.576 25.5936L179.613 23.4536L184.981 18.427L182.271 11.5093L189.449 12.6798L193.033 6.19354Z" fill="#1CCD83"/>
</svg>
